<svg width="263" height="51" viewBox="0 0 263 51" fill="none" xmlns="http://www.w3.org/2000/svg">
    <path d="M56.2827 3.35492V2.02033H41.849L32.8973 34.3843L23.5987 2.02033H9.16497V3.35492C11.4549 3.35492 12.7734 3.35492 13.6061 3.68857V40.7237C13.6061 47.1965 12.1489 48.9982 6.875 48.9982V50.3328H21.7251V48.9982C16.4512 48.9982 14.994 47.1965 14.994 40.7237V5.15663C15.2715 5.7572 15.4797 6.62469 15.8267 7.7591L28.3174 51.0001H29.6359L42.3348 5.49028V44.594C42.3348 48.9982 42.3348 48.9982 36.367 48.9982V50.3328H56.2827V48.9982C50.8701 48.9982 50.8701 48.9982 50.8701 44.594V7.7591C50.8701 3.35492 50.8701 3.35492 56.2827 3.35492Z" fill="white"/>
    <path d="M63.9772 50.3328H91.9425V48.9982C82.2275 48.9982 82.2275 48.9982 82.2275 44.594V7.7591C82.2275 3.35492 82.2275 3.35492 85.6278 3.35492C90.9016 3.35492 95.6898 11.496 95.6898 23.3739H96.9388V2.02033H58.9115V23.3739H60.23C60.23 11.496 65.0181 3.35492 70.292 3.35492C73.6922 3.35492 73.6922 3.35492 73.6922 7.7591V44.594C73.6922 48.9982 73.6922 48.9982 63.9772 48.9982V50.3328Z" fill="white"/>
    <path d="M127.539 44.4605L112.758 1.35303H111.37L97.0057 43.86C95.7566 47.5968 93.7443 48.9982 89.997 48.9982V50.3328H104.431V48.9982C98.9487 48.9982 97.2139 47.6636 98.3936 44.1269L100.614 37.3872H115.95L117.893 43.2594C119.42 47.9305 118.379 48.9982 112.758 48.9982V50.3328H134.478V48.9982C129.065 48.9314 129.065 48.9314 127.539 44.4605ZM101.1 36.0526L108.317 14.3654L115.534 36.0526H101.1Z" fill="white"/>
    <path d="M145.139 15H143.532V2.89201H145.139L149.309 13.0741L153.479 2.89201H155.121V15H153.513V10.2104C153.513 7.94957 153.53 7.12897 153.613 6.27488L150.08 15H148.539L145.022 6.30837C145.106 6.89451 145.139 8.13378 145.139 9.82522V15ZM158.107 15H156.399L160.82 2.89201H162.646L167.084 15H165.359L164.27 11.9856H159.179L158.107 15ZM161.524 5.50452L159.682 10.5621H163.785L161.926 5.50452C161.842 5.27007 161.758 4.98537 161.725 4.80115C161.691 4.96862 161.608 5.25332 161.524 5.50452ZM173.01 4.23176C170.398 4.23176 168.823 6.15765 168.823 9.02137C168.823 11.9521 170.532 13.6435 173.027 13.6435C175.087 13.6435 176.745 12.5885 176.745 10.1434V9.79172H172.692V8.33474H178.285V15.0167H176.912L176.795 13.3756C176.142 14.4306 174.668 15.201 172.893 15.201C169.46 15.201 167.099 12.7224 167.099 8.98787C167.099 5.30356 169.477 2.69105 173.044 2.69105C175.69 2.69105 177.75 4.21501 178.151 6.54283H176.41C175.958 5.00212 174.618 4.23176 173.01 4.23176ZM182.499 10.0764L178.396 2.89201H180.238L182.934 7.73186C183.102 8.01655 183.202 8.25101 183.336 8.53571C183.487 8.23426 183.52 8.13378 183.738 7.73186L186.417 2.89201H188.209L184.14 10.0764V15H182.499V10.0764ZM188.748 15H187.04L191.461 2.89201H193.287L197.725 15H196L194.911 11.9856H189.82L188.748 15ZM192.165 5.50452L190.322 10.5621H194.425L192.567 5.50452C192.483 5.27007 192.399 4.98537 192.366 4.80115C192.332 4.96862 192.248 5.25332 192.165 5.50452ZM200.64 15H198.999V2.89201H203.571C206.167 2.89201 207.708 4.26525 207.708 6.52608C207.708 8.20077 206.87 9.40654 205.363 9.8922L207.825 15H205.999L203.739 10.2104H200.64V15ZM200.64 4.36574V8.75342H203.588C205.112 8.75342 205.983 7.93282 205.983 6.54283C205.983 5.13609 205.078 4.36574 203.571 4.36574H200.64ZM142.359 22.3992V20.892H151.286V22.3992H147.651V33H146.01V22.3992H142.359ZM152.517 28.6961V20.892H154.158V28.5956C154.158 30.5382 155.23 31.61 157.156 31.61C159.065 31.61 160.12 30.5215 160.12 28.5956V20.892H161.778V28.6961C161.778 31.476 160.003 33.201 157.156 33.201C154.292 33.201 152.517 31.4928 152.517 28.6961ZM168.174 33H164.172V20.892H168.107C171.724 20.892 174.169 23.3371 174.169 26.9544C174.169 30.555 171.758 33 168.174 33ZM167.99 22.3992H165.813V31.476H168.057C170.753 31.476 172.461 29.7344 172.461 26.9544C172.461 24.1409 170.753 22.3992 167.99 22.3992ZM186.842 26.9376C186.842 30.6219 184.43 33.201 180.997 33.201C177.58 33.201 175.202 30.6219 175.202 26.9376C175.202 23.2701 177.597 20.6743 181.014 20.6743C184.447 20.6743 186.842 23.2533 186.842 26.9376ZM185.117 26.9376C185.117 24.1242 183.475 22.2653 181.014 22.2653C178.552 22.2653 176.927 24.1242 176.927 26.9376C176.927 29.7511 178.552 31.6268 181.014 31.6268C183.475 31.6268 185.117 29.7344 185.117 26.9376ZM190.213 33H188.606V20.892H190.213L194.383 31.0741L198.553 20.892H200.195V33H198.587V28.2104C198.587 25.9496 198.604 25.129 198.687 24.2749L195.154 33H193.613L190.096 24.3084C190.18 24.8945 190.213 26.1338 190.213 27.8252V33ZM208.892 17.7771L207.452 20.0044H206.229L207.368 17.7771H208.892ZM203.181 33H201.473L205.894 20.892H207.72L212.158 33H210.433L209.344 29.9856H204.253L203.181 33ZM206.598 23.5045L204.756 28.5621H208.859L207 23.5045C206.916 23.2701 206.832 22.9854 206.799 22.8012C206.765 22.9686 206.681 23.2533 206.598 23.5045ZM215.073 33H213.432V20.892H215.073L221.27 30.2535V20.892H222.911V33H221.27L215.073 23.6385V33ZM228.26 28.0764L224.157 20.892H225.999L228.695 25.7319C228.862 26.0166 228.963 26.251 229.097 26.5357C229.248 26.2343 229.281 26.1338 229.499 25.7319L232.178 20.892H233.97L229.901 28.0764V33H228.26V28.0764ZM245.269 26.9376C245.269 30.6219 242.858 33.201 239.424 33.201C236.008 33.201 233.63 30.6219 233.63 26.9376C233.63 23.2701 236.025 20.6743 239.441 20.6743C242.874 20.6743 245.269 23.2533 245.269 26.9376ZM243.544 26.9376C243.544 24.1242 241.903 22.2653 239.441 22.2653C236.979 22.2653 235.355 24.1242 235.355 26.9376C235.355 29.7511 236.979 31.6268 239.441 31.6268C241.903 31.6268 243.544 29.7344 243.544 26.9376ZM246.33 24.1577C246.33 22.081 248.005 20.6743 250.5 20.6743C252.811 20.6743 254.301 21.9638 254.435 24.0572H252.777C252.694 22.8514 251.84 22.148 250.483 22.148C248.959 22.148 247.971 22.9184 247.971 24.1074C247.971 25.0787 248.524 25.6649 249.663 25.9328L251.655 26.4017C253.632 26.8539 254.636 27.9257 254.636 29.6339C254.636 31.811 252.945 33.201 250.366 33.201C247.904 33.201 246.263 31.9115 246.162 29.8348H247.837C247.871 30.9904 248.842 31.7272 250.366 31.7272C251.974 31.7272 252.995 30.9736 252.995 29.7679C252.995 28.8133 252.476 28.2104 251.32 27.9424L249.328 27.4903C247.351 27.0381 246.33 25.8993 246.33 24.1577ZM144.034 51H142.326L146.747 38.892H148.573L153.01 51H151.286L150.197 47.9856H145.106L144.034 51ZM147.451 41.5045L145.608 46.5621H149.711L147.852 41.5045C147.769 41.2701 147.685 40.9854 147.651 40.8012C147.618 40.9686 147.534 41.2533 147.451 41.5045ZM155.926 38.892V45.7582L161.319 38.892H163.278L159.225 44.0333L163.345 51H161.436L158.137 45.4233L155.926 48.22V51H154.285V38.892H155.926ZM165.214 51H163.506L167.927 38.892H169.752L174.19 51H172.465L171.377 47.9856H166.286L165.214 51ZM168.63 41.5045L166.788 46.5621H170.891L169.032 41.5045C168.948 41.2701 168.865 40.9854 168.831 40.8012C168.798 40.9686 168.714 41.2533 168.63 41.5045ZM179.467 51H175.465V38.892H179.4C183.017 38.892 185.463 41.3371 185.463 44.9544C185.463 48.555 183.051 51 179.467 51ZM179.283 40.3992H177.106V49.476H179.35C182.046 49.476 183.754 47.7344 183.754 44.9544C183.754 42.1409 182.046 40.3992 179.283 40.3992ZM192.926 35.7771L191.469 38.0044H190.263L191.386 35.7771H192.926ZM194.601 51H187.216V38.892H194.601V40.3992H188.857V44.184H194.032V45.641H188.857V49.476H194.601V51ZM198.252 51H196.644V38.892H198.252L202.422 49.0741L206.592 38.892H208.233V51H206.625V46.2104C206.625 43.9496 206.642 43.129 206.726 42.2749L203.192 51H201.651L198.135 42.3084C198.218 42.8945 198.252 44.1338 198.252 45.8252V51ZM212.359 38.892V51H210.717V38.892H212.359ZM215.35 51H213.641L218.063 38.892H219.888L224.326 51H222.601L221.512 47.9856H216.421L215.35 51ZM218.766 41.5045L216.924 46.5621H221.027L219.168 41.5045C219.084 41.2701 219 40.9854 218.967 40.8012C218.933 40.9686 218.85 41.2533 218.766 41.5045Z" fill="white"/>
</svg>
